<svg viewBox="170 155 160 180" width="143" height="160" xmlns="http://www.w3.org/2000/svg">
  <defs></defs>
  <g transform="matrix(1, 0, 0, 1, 0.355743, 1.794351)">
    <path d="M 205.007 161.232 C 206.135 161.498 209.744 162.789 210.701 163.19 C 211.294 163.438 212.198 164.017 212.855 164.929 C 213.384 165.664 213.113 166.023 212.796 167.002 C 212.593 167.628 211.74 168.989 210.658 169.433 C 209.476 169.918 207.626 170.021 206.03 169.628 C 204.273 169.195 202.111 168.357 200.204 168.602 C 198.101 168.872 197.029 170.251 195.809 172.181 C 195.103 173.298 195.007 177.713 195.006 177.833 C 194.993 179.734 194.792 183.583 195.006 185.955 C 195.189 187.975 195.241 189.101 196.022 191.286 C 197.007 194.045 202.084 202.342 202.698 203.075 C 204.016 204.65 206.574 208.602 208.801 212.53 C 209.556 213.555 210.265 214.554 210.878 215.495 C 211.591 215.261 213.162 212.812 214.384 211.288 C 215.225 210.239 217.196 208.395 220.12 205.394 C 223.334 202.096 223.522 201.545 225.555 199.346 C 228.066 196.629 231.635 192.357 234.305 189.79 C 236.488 187.692 242.884 183 245.827 181.342 C 250.001 178.99 253.004 177.958 258.102 177.081 C 263.382 176.173 266.063 176.575 268.813 177.043 C 271.537 177.507 273.625 178.027 276.06 178.876 C 278.619 179.768 281.662 181.303 283.675 182.683 C 285.351 183.833 286.435 184.767 287.609 186.364 C 288.981 188.229 290.521 190.899 291.163 193.471 C 291.827 196.13 291.218 199.265 290.835 201.757 C 290.505 203.904 289.725 205.757 288.804 207.342 C 287.954 208.804 287.094 210.317 286.077 211.443 C 284.828 212.827 282.48 215.018 281.635 215.92 C 280.992 216.606 280.501 217.004 279.304 218.176 C 278.545 218.919 275.921 220.113 274.953 222.964 C 274.053 225.315 273.827 227.418 276.525 227.814 C 278.917 228.165 283.095 225.939 284.748 225.161 C 286.366 224.399 288.728 223.384 290.318 222.708 C 292.198 221.909 293.125 221.786 294.889 221.079 C 296.603 220.139 299.561 218.335 301.608 216.806 C 302.03 216.202 304.174 214.524 305.093 213.345 C 305.128 213.315 308.072 209.903 309.328 208.153 C 309.352 208.12 310.961 205.307 311.743 204.082 C 311.967 202.217 311.855 200.53 310.704 198.098 C 309.181 196.122 304.115 193.127 303.389 192.304 C 302.751 191.58 302.345 190.915 302.12 190.019 C 301.866 189.007 302.052 187.449 302.12 186.466 C 302.231 184.859 305.203 183.496 305.884 183.464 C 308.01 183.364 310.347 184.111 312.738 185.241 C 314.284 185.972 316.338 187.074 318.101 188.328 C 319.296 189.288 321.897 191.606 322.298 192.037 C 322.572 192.454 323.601 194.869 323.974 197.211 C 324.479 200.378 324.47 206.192 324.174 207.5 C 323.843 208.964 323.547 209.82 323.088 211.12 C 322.619 213.208 321.57 215.009 320.401 216.943 C 319.606 218.257 318.562 220.04 317.607 220.965 C 316.531 222.571 315.027 224.169 313.743 225.366 C 312.94 226.115 310.991 227.282 309.668 228.414 C 308.527 229.39 307.052 230.462 305.871 231.09 C 304.509 231.814 303.559 232.882 301.901 233.541 C 299.8 234.375 298.068 234.735 295.566 235.768 C 293.023 236.818 289.831 238.777 287.63 239.832 C 285.157 241.017 284.089 242.324 282.24 244.351 C 280.911 245.807 280.09 246.986 278.647 248.971 C 277.151 251.547 275.943 254.711 275.06 257.405 C 274.378 259.486 273.537 261.269 273.336 263.339 C 273.338 265.679 273.476 267.92 273.843 271.105 C 274.035 273.68 273.892 276.922 274.014 279.866 C 274.595 288.271 274.47 293.586 274.57 296.794 C 274.647 299.284 274.594 299.105 274.81 302.101 C 275.091 304.597 274.867 307.226 276.019 308.495 C 277.447 310.067 280.17 309.529 282.295 310.204 C 283.924 310.722 285.804 312.183 286.505 313.461 C 287.214 314.756 287.261 317.161 287.012 318.284 C 286.838 319.073 286.48 319.538 285.87 319.934 C 285.462 320.199 283.622 320.815 283.196 320.914 C 281.713 321.259 277.287 321.836 275.463 321.342 C 275.332 321.307 273.229 320.878 272.772 320.768 C 272.241 320.64 269.648 319.524 269.244 319.045 C 268.856 318.586 266.861 316.421 266.635 316.058 C 265.925 314.918 263.999 309.866 263.299 307.122 C 262.937 305.7 262.163 303.736 261.134 301.273 C 259.222 296.696 256.773 284.565 254.738 276.284 C 253.538 271.398 251.843 266.556 250.601 263.517 C 248.095 260.81 248.425 260.702 245.61 259.741 C 242.773 258.772 242.224 258.683 238.912 258.488 C 237.086 258.381 235.25 258.296 232.614 258.239 C 230.275 258.188 229.368 258.201 227.249 258.188 C 225.021 258.175 221.904 258.54 217.169 260.984 C 213.976 262.632 210.684 265.716 209.248 268.623 C 208.081 270.986 207.022 273.804 206.017 276.425 C 205.217 279.966 204.196 285.345 203.839 285.897 C 202.344 292.769 200.468 299.858 199.46 302.385 C 198.936 303.699 198.335 306.03 198.179 306.675 C 197.88 307.908 197.194 309.266 196.402 310.102 C 195.68 310.864 194.713 311.326 193.737 311.625 C 193.003 311.849 188.666 312.751 187.429 312.527 C 185.803 312.233 183.681 310.968 182.733 309.608 C 181.809 308.283 181.362 306.391 181.717 304.531 C 181.88 303.681 182.305 302.631 182.864 301.562 C 182.865 301.515 184.998 293.624 185.724 291.056 C 186.84 287.106 188.591 283.843 189.721 275.783 C 190.76 268.371 191.556 260.863 192.767 255.73 C 193.309 253.431 194.408 247.153 194.64 245.688 C 195.22 242.026 198.136 235.759 198.701 232.235 C 199.105 229.713 199.083 228.585 198.701 226.143 C 198.29 223.514 196.086 219.102 195.366 216.079 C 194.188 213.52 193.209 212.068 192.544 210.944 C 191.507 209.191 188.393 204.52 187.391 202.708 C 185.776 199.788 185.372 198.274 184.599 196.109 C 183.863 194.046 183.184 192.495 182.822 190.017 C 182.361 186.854 182.075 181.299 182.569 178.34 C 182.997 175.773 185.479 170.076 185.834 169.608 C 186.67 167.77 189.027 165.23 190.331 164.159 C 190.889 163.702 191.937 162.454 192.567 162.026 C 193.346 161.497 194.593 160.95 196.15 160.751 C 198.361 160.469 203.693 160.922 205.007 161.232 Z" style="stroke: rgb(0, 0, 0); stroke-width: 3px;"></path>
    <path d="M 278.652 196.053 C 279.409 196.015 280.222 196.193 280.499 196.727 C 280.761 197.232 280.649 198.29 280.111 198.811 C 279.472 199.429 277.847 199.648 277.195 199.35 C 276.747 199.145 276.29 198.764 276.321 198.388 C 276.356 197.956 276.626 197.412 276.95 197.039 C 277.334 196.597 277.932 196.089 278.652 196.053 Z M 253.194 195.156 C 254.545 195.199 255.485 195.639 256.087 196.333 C 256.563 196.882 256.849 197.549 256.547 198.055 C 256.237 198.576 255.346 199.006 254.601 198.906 C 253.747 198.791 252.589 198.124 252.163 197.551 C 251.893 197.188 251.835 196.587 251.884 196.244 C 251.937 195.868 252.142 195.122 253.194 195.156 Z" style="fill: rgb(5, 0, 0); stroke: rgb(237, 234, 234); stroke-width: 2px;"></path>
  </g>
</svg>