<svg width="30" height="34" viewBox="0 0 30 34" fill="none" xmlns="http://www.w3.org/2000/svg">
<path d="M27.4723 5.08652C27.4723 5.08652 25.3665 9.02093 22.1663 10.3919C19.6539 11.4699 16.4615 10.9619 15.2078 10.7001C13.949 10.9364 10.747 11.3791 8.25696 10.2501C5.0854 8.81426 3.06024 4.83775 3.06024 4.83775C3.06024 4.83775 7.37822 3.73858 10.5498 5.1744C11.2315 5.48129 11.8553 5.9008 12.4221 6.37633C14.5646 8.17869 15.1459 8.39085 18.0809 6.434C18.6572 5.97012 19.2895 5.56341 19.9773 5.27049C23.1775 3.89958 27.4723 5.08652 27.4723 5.08652Z" fill="#B1CC33" stroke="#B1CC33" stroke-miterlimit="10" stroke-linejoin="round"/>
<path d="M28.6647 19.2054C28.4893 26.3867 22.1908 32.0232 15.0773 32.9003C15.049 32.906 15.0207 32.906 14.9924 32.9116H14.9302C14.8113 32.9116 14.6982 32.906 14.5737 32.9003C8.15628 31.4516 1.96526 25.8095 1.32013 19.2054C1.32013 18.2094 1.42765 17.2304 1.63138 16.291C1.99356 14.5989 2.67831 13.02 3.60639 11.6222C5.10039 9.98677 7.31308 8.95682 9.78609 8.95682C11.0707 8.95682 12.2761 9.22845 13.357 9.72079C14.087 10.0547 14.9019 10.1396 15.6715 9.96979C15.9262 9.91886 16.1808 9.83397 16.4242 9.72079C17.4994 9.22845 18.7104 8.95682 19.9894 8.95682C22.751 8.95682 25.1957 10.2414 26.6671 12.2164C26.8312 12.4258 26.9727 12.6409 27.1085 12.8616C27.3858 13.3879 27.6235 13.9311 27.8329 14.4914C27.8385 14.5027 27.8442 14.5084 27.8442 14.5197C27.9121 14.7008 27.9743 14.8875 28.0309 15.0743C28.0819 15.2384 28.1328 15.4025 28.1781 15.5666C28.2177 15.7137 28.2573 15.8552 28.2912 16.0024C28.5006 16.8852 28.6251 17.8019 28.6591 18.7357C28.6647 18.8941 28.6647 19.0469 28.6647 19.2054Z" fill="#FFA7C0" stroke="#FFA7C0" stroke-miterlimit="10" stroke-linecap="round" stroke-linejoin="round"/>
<path d="M15.6716 9.96979C16.2658 9.85661 16.8317 9.76606 17.3636 9.70947C16.3903 9.87924 15.5018 10.032 15.3094 10.049C15.4339 10.0207 15.5527 9.99243 15.6716 9.96979Z" fill="#E67A94" stroke="#E67A94" stroke-miterlimit="10" stroke-linejoin="round"/>
<path d="M28.6648 19.2054C28.4893 26.3867 22.1908 32.0232 15.0773 32.9003C26.5163 30.2298 32.8551 8.04315 17.3636 9.70946C18.586 9.50008 19.9498 9.27371 20.2441 9.27371C22.8529 9.27371 25.1788 10.4225 26.6671 12.2164C26.8312 12.4258 26.9727 12.6409 27.1085 12.8616C27.3859 13.3879 27.6235 13.9311 27.8329 14.4914C27.8385 14.5027 27.8442 14.5083 27.8442 14.5197C27.9121 14.7008 27.9743 14.8875 28.0309 15.0743C28.0819 15.2384 28.1329 15.4025 28.1781 15.5666C28.2177 15.7137 28.2573 15.8552 28.2913 16.0023C28.512 16.8852 28.6421 17.7963 28.6591 18.7357C28.6648 18.8941 28.6648 19.0469 28.6648 19.2054Z" fill="#E67A94" stroke="#E67A94" stroke-miterlimit="10" stroke-linejoin="round"/>
<path d="M15.6485 17.403C15.242 15.454 13.7206 14.2721 13.7206 14.2721" stroke="#E67A94" stroke-miterlimit="10" stroke-linecap="round" stroke-linejoin="round"/>
<path d="M18.049 6.49795C18.618 6.02916 19.2475 5.61333 19.9282 5.31379C23.1156 3.91097 27.4253 5.05806 27.4253 5.05806" stroke="#050505" stroke-miterlimit="10" stroke-linecap="round" stroke-linejoin="round"/>
<path d="M27.4253 5.05804C27.4253 5.05804 26.8032 6.24888 25.7148 7.55528" stroke="#050505" stroke-miterlimit="10" stroke-linecap="round" stroke-linejoin="round"/>
<path d="M12.2084 6.21805C11.6393 5.74925 11.0099 5.33342 10.3292 5.03389C7.14175 3.63106 2.83203 4.77815 2.83203 4.77815" stroke="#050505" stroke-miterlimit="10" stroke-linecap="round" stroke-linejoin="round"/>
<path d="M2.83203 4.77814C2.83203 4.77814 3.4118 5.88788 4.43111 7.14001" stroke="#050505" stroke-miterlimit="10" stroke-linecap="round" stroke-linejoin="round"/>
<path d="M14.9274 5.38944C14.7462 4.07077 14.2752 2.19733 13.0555 0.916687" stroke="#050505" stroke-miterlimit="10" stroke-linecap="round" stroke-linejoin="round"/>
<path d="M28.6648 19.2054C28.4893 26.3867 22.1908 32.0232 15.0773 32.9003C15.049 32.906 15.0208 32.906 14.9925 32.9116H14.9302C14.8114 32.9116 14.6925 32.9286 14.5737 32.9003C8.15631 31.4516 1.96529 25.8095 1.32015 19.2054C1.22395 18.2151 1.42767 17.2304 1.6314 16.291C1.99358 14.5989 2.67833 13.02 3.60642 11.6222C5.10041 9.98677 7.31311 8.95682 9.78612 8.95682C11.0707 8.95682 12.2761 9.22845 13.357 9.72079C14.087 10.0547 14.9019 10.1396 15.6715 9.96979C15.9262 9.91886 16.1809 9.83397 16.4242 9.72079C17.4994 9.22845 18.7105 8.95682 19.9894 8.95682C22.751 8.95682 25.1958 10.2414 26.6671 12.2164C26.8312 12.4258 26.9727 12.6409 27.1085 12.8616C27.3859 13.3879 27.6235 13.9311 27.8329 14.4914C27.8385 14.5027 27.8442 14.5084 27.8442 14.5197C27.9121 14.7008 27.9744 14.8875 28.0309 15.0743C28.0819 15.2384 28.1329 15.4025 28.1781 15.5666C28.2177 15.7137 28.2573 15.8552 28.2913 16.0024C28.512 16.8852 28.6421 17.7963 28.6591 18.7357C28.6648 18.8941 28.6648 19.0469 28.6648 19.2054Z" stroke="#050505" stroke-miterlimit="10" stroke-linecap="round" stroke-linejoin="round"/>
<path d="M17.498 26.6097C18.6532 22.554 19.3338 16.6408 15.3829 12.6805" stroke="#050505" stroke-miterlimit="10" stroke-linecap="round" stroke-linejoin="round"/>
</svg>
