<?xml version="1.0" encoding="utf-8"?>
<svg viewBox="132 115 75 65" width="67.6626" height="47.7874" xmlns="http://www.w3.org/2000/svg">
  <g transform="matrix(1, 0, 0, 1, 0.35574302077293396, 1.7943509817123413)">
    <path d="M 181.149 149.653 C 182.877 150.518 186.106 150.749 190.197 149.982 C 193.663 149.332 195.024 149.04 197.779 146.263 C 198.952 145.081 204.59 137.726 205.135 137.811 C 205.524 137.872 201.706 150.226 199.38 153.546 C 196.843 157.167 195.579 157.837 191.214 160.028 C 189.038 161.12 186.486 161.492 185.078 161.637 C 184.197 161.728 183.125 162.071 182.367 162.655 C 181.723 163.259 181.802 168.367 181.343 168.561 C 180.868 168.762 176.466 168.726 176.256 168.616 C 175.858 168.286 175.683 166.32 175.621 165.508 C 175.579 164.962 175.576 163.436 175.264 163.042 C 174.928 162.555 171.759 162.43 171.475 162.955 C 171.17 163.518 170.924 168.309 170.449 168.542 C 169.68 168.92 166.61 168.877 165.686 168.849 C 165.093 168.831 164.716 166.537 164.89 164.428 C 165.033 162.703 165.596 160.189 164.831 158.447 C 164.16 157.293 162.734 155.139 162.075 154.842 C 161.026 154.698 158.582 156.678 158.068 156.68 C 157.381 156.682 156.697 156.163 156.618 155.579 C 156.532 154.938 158.159 153.505 158.014 152.952 C 157.582 152.35 155.641 153.516 154.808 153.473 C 154.144 153.439 153.474 152.595 153.549 151.879 C 153.618 151.209 154.123 151.169 155.103 150.616 C 155.641 150.312 158.12 149.373 158.41 148.868 C 158.45 148.184 157.872 146.221 157.112 145.847 C 155.936 145.428 151.739 145.905 147.7 147.142 C 146.746 147.163 143.272 147.781 142.278 146.749 C 141.26 145.692 140.437 143.063 141.264 142.648 C 141.99 142.283 144.359 145.038 144.804 144.823 C 145.222 144.621 145.053 141.968 145.474 141.736 C 145.818 141.546 148.527 143.434 148.904 143.22 C 149.297 142.997 148.669 140.337 149.179 140.109 C 149.745 139.856 152.219 141.69 152.659 141.446 C 153.123 141.188 153.003 138.745 153.5 138.537 C 153.971 138.34 155.734 140.433 155.947 139.999 C 156.156 139.575 155.492 137.939 155.074 136.879 C 154.778 136.127 152.967 135.208 152.488 135.473 C 152.023 135.73 151.605 138.308 151.044 138.555 C 150.435 138.824 148.578 136.605 148.157 136.809 C 147.772 136.996 147.833 139.733 147.477 139.873 C 146.873 140.111 144.638 137.942 144.177 138.148 C 143.673 138.373 143.847 141.093 143.343 141.278 C 142.726 141.504 141.298 139.298 140.904 139.411 C 140.377 139.562 140.147 141.82 139.742 141.932 C 139.239 142.071 135.725 134.116 138.652 131.686 C 142.343 128.621 145.664 127.417 149.4 125.602 C 153.727 123.501 157.675 120.785 164.096 121.105 C 167.054 121.252 169.428 122.586 170.163 123.818 C 171.816 126.591 172.312 139.501 174.44 143.964 C 176.069 147.379 179.774 148.965 181.149 149.653 Z" style="fill: rgb(42, 195, 9); stroke: rgb(0, 0, 0);"/>
    <ellipse style="fill: rgb(0, 2, 4); stroke: rgb(255, 255, 255); transform-box: fill-box; transform-origin: 50.2209% 55.5321%;" cx="164.289" cy="126.196" rx="2.453" ry="1.461" transform="matrix(0.966151, -0.257979, 0.133496, 0.99939, -2.751124, 2.000433)"/>
  </g>
</svg>