<svg viewBox="0 0 144 40" xmlns="http://www.w3.org/2000/svg">
  <defs></defs>
  <g id="SVGRepo_iconCarrier" transform="matrix(1, 0, 0, 1, 195.981049, 1.405184)">
    <path d="M -181.936 12.559 C -183.268 12.563 -184.551 13.062 -185.536 13.959 C -186.308 13.256 -187.269 12.794 -188.299 12.628 C -189.33 12.461 -190.387 12.599 -191.341 13.023 C -192.295 13.447 -193.105 14.139 -193.673 15.016 C -194.239 15.892 -194.54 16.915 -194.536 17.959 C -194.536 24.409 -185.536 28.779 -185.536 28.779 C -185.536 28.779 -176.536 24.409 -176.536 17.959 C -176.536 16.527 -177.105 15.153 -178.117 14.141 C -179.13 13.128 -180.504 12.559 -181.936 12.559 Z" stroke-width="1.5" stroke-linejoin="round" style="stroke: rgb(224, 72, 72); fill-rule: nonzero; fill: none; transform-origin: -185.536px 20.669px; stroke-linecap: round; paint-order: stroke;"></path>
    <path d="M -161.576 12.426 C -162.908 12.43 -164.191 12.929 -165.176 13.826 C -165.948 13.123 -166.909 12.661 -167.939 12.495 C -168.97 12.328 -170.027 12.466 -170.981 12.89 C -171.935 13.314 -172.745 14.006 -173.313 14.883 C -173.879 15.759 -174.18 16.782 -174.176 17.826 C -174.176 24.276 -165.176 28.646 -165.176 28.646 C -165.176 28.646 -156.176 24.276 -156.176 17.826 C -156.176 16.394 -156.745 15.02 -157.757 14.008 C -158.77 12.995 -160.144 12.426 -161.576 12.426 Z" stroke-width="1.5" stroke-linejoin="round" style="stroke: rgb(224, 72, 72); fill-rule: nonzero; transform-origin: -165.176px 20.536px; fill: rgba(224, 72, 72, 0.157); stroke-linecap: round; paint-order: stroke;"></path>
    <path d="M -141.206 12.32 C -142.538 12.324 -143.821 12.823 -144.806 13.72 C -145.578 13.017 -146.539 12.555 -147.569 12.389 C -148.6 12.222 -149.657 12.36 -150.611 12.784 C -151.565 13.208 -152.375 13.9 -152.943 14.777 C -153.509 15.653 -153.81 16.676 -153.806 17.72 C -153.806 24.17 -144.806 28.54 -144.806 28.54 C -144.806 28.54 -135.806 24.17 -135.806 17.72 C -135.806 16.288 -136.375 14.914 -137.387 13.902 C -138.4 12.889 -139.774 12.32 -141.206 12.32 Z" stroke-width="1.5" stroke-linejoin="round" style="stroke: rgb(224, 72, 72); fill-rule: nonzero; transform-origin: -144.806px 20.43px; fill: rgba(224, 72, 72, 0.396); stroke-linecap: round; paint-order: stroke;"></path>
    <path d="M -120.858 12.37 C -122.19 12.374 -123.473 12.873 -124.458 13.77 C -125.23 13.067 -126.191 12.605 -127.221 12.439 C -128.252 12.272 -129.309 12.41 -130.263 12.834 C -131.217 13.258 -132.027 13.95 -132.595 14.827 C -133.161 15.703 -133.462 16.726 -133.458 17.77 C -133.458 24.22 -124.458 28.59 -124.458 28.59 C -124.458 28.59 -115.458 24.22 -115.458 17.77 C -115.458 16.338 -116.027 14.964 -117.039 13.952 C -118.052 12.939 -119.426 12.37 -120.858 12.37 Z" stroke-width="1.5" stroke-linejoin="round" style="stroke: rgb(224, 72, 72); fill-rule: nonzero; transform-origin: -124.458px 20.48px; fill: rgba(224, 72, 72, 0.56); stroke-linecap: round; paint-order: stroke;"></path>
    <path d="M -100.308 12.316 C -101.64 12.32 -102.923 12.819 -103.908 13.716 C -104.68 13.013 -105.641 12.551 -106.671 12.385 C -107.702 12.218 -108.759 12.356 -109.713 12.78 C -110.667 13.204 -111.477 13.896 -112.045 14.773 C -112.611 15.649 -112.912 16.672 -112.908 17.716 C -112.908 24.166 -103.908 28.536 -103.908 28.536 C -103.908 28.536 -94.908 24.166 -94.908 17.716 C -94.908 16.284 -95.477 14.91 -96.489 13.898 C -97.502 12.885 -98.876 12.316 -100.308 12.316 Z" stroke-width="1.5" stroke-linejoin="round" style="stroke: rgb(224, 72, 72); fill-rule: nonzero; transform-origin: -103.908px 20.426px; fill: rgba(224, 72, 72, 0.66); stroke-linecap: round; paint-order: stroke;"></path>
    <path d="M -79.865 12.366 C -81.197 12.37 -82.48 12.869 -83.465 13.766 C -84.237 13.063 -85.198 12.601 -86.228 12.435 C -87.259 12.268 -88.316 12.406 -89.27 12.83 C -90.224 13.254 -91.034 13.946 -91.602 14.823 C -92.168 15.699 -92.469 16.722 -92.465 17.766 C -92.465 24.216 -83.465 28.586 -83.465 28.586 C -83.465 28.586 -74.465 24.216 -74.465 17.766 C -74.465 16.334 -75.034 14.96 -76.046 13.948 C -77.059 12.935 -78.433 12.366 -79.865 12.366 Z" stroke-width="1.5" stroke-linejoin="round" style="stroke: rgb(224, 72, 72); fill-rule: nonzero; transform-origin: -83.465px 20.476px; fill: rgba(224, 72, 72, 0.843); stroke-linecap: round; paint-order: stroke;"></path>
    <path d="M -59.088 12.378 C -60.42 12.382 -61.703 12.881 -62.688 13.778 C -63.46 13.075 -64.421 12.613 -65.451 12.447 C -66.482 12.28 -67.539 12.418 -68.493 12.842 C -69.447 13.266 -70.257 13.958 -70.825 14.835 C -71.391 15.711 -71.692 16.734 -71.688 17.778 C -71.688 24.228 -62.688 28.598 -62.688 28.598 C -62.688 28.598 -53.688 24.228 -53.688 17.778 C -53.688 16.346 -54.257 14.972 -55.269 13.96 C -56.282 12.947 -57.656 12.378 -59.088 12.378 Z" stroke-width="1.5" stroke-linejoin="round" style="stroke: rgb(224, 72, 72); fill-rule: nonzero; fill: rgb(224, 72, 72); transform-origin: -62.688px 20.488px; stroke-linecap: round; paint-order: stroke;"></path>
  </g>
</svg>