<svg width="32" height="32" viewBox="0 0 32 32" fill="none" xmlns="http://www.w3.org/2000/svg">
<rect x="0.5" y="0.5" width="31" height="31" rx="3.5" fill="black" stroke="white"/>
<path d="M18.5168 4.80005C19.5566 4.80005 20.3996 5.64304 20.3996 6.68286V24.9543C20.3995 26.1945 19.3946 27.2002 18.1545 27.2004H12.5998C8.29206 27.2003 4.79999 23.7074 4.79999 19.3997V6.77271C4.79999 5.68337 5.68331 4.80005 6.77264 4.80005C7.86187 4.80018 8.7453 5.68345 8.7453 6.77271V20.0295C8.7453 22.2082 10.511 23.9748 12.6896 23.9749C14.8683 23.9749 16.6349 22.2082 16.6349 20.0295V6.68286C16.6349 5.64319 17.4772 4.80029 18.5168 4.80005Z" fill="black"/>
<path d="M18.5168 4.80005C19.5566 4.80005 20.3996 5.64304 20.3996 6.68286V24.9543C20.3995 26.1945 19.3946 27.2002 18.1545 27.2004H12.5998C8.29206 27.2003 4.79999 23.7074 4.79999 19.3997V6.77271C4.79999 5.68337 5.68331 4.80005 6.77264 4.80005C7.86187 4.80018 8.7453 5.68345 8.7453 6.77271V20.0295C8.7453 22.2082 10.511 23.9748 12.6896 23.9749C14.8683 23.9749 16.6349 22.2082 16.6349 20.0295V6.68286C16.6349 5.64319 17.4772 4.80029 18.5168 4.80005Z" stroke="black"/>
<path d="M23.68 6.56005C23.68 5.58803 24.468 4.80005 25.44 4.80005C26.412 4.80005 27.2 5.58803 27.2 6.56005V25.4401C27.2 26.4121 26.412 27.2 25.44 27.2C24.468 27.2 23.68 26.4121 23.68 25.44V6.56005Z" fill="black"/>
<path d="M24.3948 4.67505C24.5937 4.67507 24.7879 4.7357 24.9515 4.84888L24.9788 4.86841L25.0618 4.93188C25.4313 5.24371 25.5496 5.7646 25.3509 6.20532L25.304 6.29907L25.2689 6.35962C25.1985 6.48272 25.1026 6.58871 24.9886 6.67114L24.8685 6.74536L24.8226 6.76978C24.1834 7.10533 23.4164 6.64202 23.4163 5.92017V5.65356C23.4163 5.1132 23.8545 4.67505 24.3948 4.67505Z" fill="#F8EAB9" stroke="black" stroke-width="0.25"/>
<path d="M26.5959 4.67505C26.9986 4.67514 27.3254 5.00184 27.3254 5.40454V6.51782C27.3251 6.94091 26.9338 7.24616 26.5334 7.16138L26.4533 7.13892L25.6408 6.85864C25.2309 6.71728 25.0507 6.23807 25.2658 5.86157L25.3928 5.63794L25.4123 5.5813C25.418 5.54171 25.4092 5.50125 25.3869 5.46802L25.3449 5.42505C25.0131 5.19533 25.1757 4.67505 25.5793 4.67505H26.5959Z" fill="#FFB1EF" stroke="black" stroke-width="0.25"/>
<path d="M24.9222 6.448C25.0265 6.41838 25.1385 6.42135 25.2425 6.45776L25.3069 6.48511C25.5942 6.6293 25.6873 6.99952 25.5023 7.26245L25.4583 7.31714L24.9896 7.82983C24.8234 8.01154 24.7587 8.26439 24.8167 8.50366L24.9183 8.92261L24.9359 9.02417C24.9568 9.22762 24.8947 9.4313 24.764 9.58862L24.6927 9.66382C24.2042 10.1114 23.4165 9.76477 23.4163 9.10229V8.28198C23.4165 7.63253 23.7769 7.03707 24.3519 6.73511L24.8206 6.48901L24.9222 6.448Z" fill="#B1ECFF" stroke="black" stroke-width="0.25"/>
<path d="M24.5433 9.47363C24.7879 9.30734 25.1033 9.27364 25.3812 9.39062L25.4876 9.43555L25.6253 9.47949C25.6721 9.49 25.7198 9.49594 25.7679 9.49805L26.3568 9.52441L26.431 9.51953C26.4552 9.51538 26.4793 9.5082 26.5023 9.49902L26.5765 9.47461C26.9483 9.37847 27.3245 9.65871 27.3245 10.0566V10.2783C27.3244 10.6172 27.0992 10.9077 26.7845 10.999L26.6439 11.0254L25.3626 11.1436C25.2679 11.1523 25.1725 11.148 25.0794 11.1299L24.9876 11.1074L24.7894 11.0488C24.1318 10.8545 23.9382 10.0161 24.4437 9.55273L24.5433 9.47363Z" fill="#F8EAB9" stroke="black" stroke-width="0.25"/>
<path d="M23.4163 12.0483C23.4163 11.2166 24.2163 10.6184 25.014 10.854L25.136 10.8901L25.1966 10.9019C25.2172 10.9039 25.2383 10.9037 25.2591 10.9019L25.3382 10.8999C25.7005 10.9153 25.9605 11.2651 25.8714 11.6167L25.847 11.6919L25.6087 12.2896C25.5237 12.5024 25.5444 12.7432 25.6653 12.938L25.6839 12.9673L25.7318 13.0532C25.9333 13.4579 25.8491 13.9482 25.5247 14.2632L25.4515 14.3286L24.8802 14.7876C24.5791 15.0298 24.1632 15.0499 23.8441 14.853L23.7142 14.7554C23.5247 14.5847 23.4163 14.3414 23.4163 14.0864V12.0483Z" fill="#FFB1EF" stroke="black" stroke-width="0.25"/>
<path d="M26.5479 25.9148C26.9572 25.8729 27.325 26.1945 27.3253 26.6179C27.3253 27.0082 27.0085 27.325 26.6182 27.325H26.2149C25.9804 27.3249 25.7769 27.1742 25.7042 26.9587L25.6817 26.8621C25.6618 26.7227 25.6971 26.5811 25.7803 26.4675L25.9493 26.2361L26.0401 26.1335C26.1395 26.0395 26.2633 25.9732 26.3985 25.9431L26.4649 25.9285L26.5479 25.9148Z" fill="#F8EAB9" stroke="black" stroke-width="0.25"/>
<path d="M26.6282 24.938C26.9844 24.872 27.3245 25.146 27.3245 25.52C27.3244 25.7621 27.1779 25.976 26.9603 26.0659L26.8626 26.0962L26.5403 26.1675C26.4073 26.1971 26.2857 26.2625 26.1878 26.355L26.098 26.4565L25.9642 26.6401C25.9312 26.6851 25.9162 26.7412 25.9241 26.7964L25.928 26.8989C25.9095 27.1337 25.7128 27.3246 25.4661 27.3247H24.014C23.6839 27.3246 23.4163 27.0572 23.4163 26.7271C23.4163 26.5389 23.505 26.3614 23.6556 26.2485L24.2669 25.7896L24.4007 25.6987C24.5381 25.6128 24.6862 25.5443 24.8411 25.4956L26.5569 24.9565L26.6282 24.938Z" fill="#B1ECFF" stroke="black" stroke-width="0.25"/>
<path d="M25.1214 20.3246C25.4529 20.2635 25.7974 20.3819 26.0208 20.6439L26.4251 21.1176L26.4896 21.2152C26.5925 21.4197 26.5367 21.6723 26.3568 21.8138L26.2562 21.8744C26.1242 21.9344 26.0772 22.0984 26.1575 22.2191L26.1761 22.2465L26.2083 22.3031C26.2669 22.4214 26.2781 22.558 26.2386 22.684L26.2142 22.7455L26.2005 22.7748C26.1072 22.9768 25.9054 23.1068 25.6829 23.1068H24.7806C24.6746 23.1068 24.569 23.0941 24.4661 23.0697L24.3636 23.0404L23.9505 22.9086C23.6322 22.8062 23.4163 22.5095 23.4163 22.1752C23.4164 21.9909 23.4826 21.8129 23.6028 21.6732L24.4368 20.7045L24.5364 20.6039C24.642 20.5097 24.7652 20.4368 24.8997 20.39L24.9808 20.3617L25.1214 20.3246Z" fill="#FFB1EF" stroke="black" stroke-width="0.25"/>
<path d="M25.5931 19.3469C25.8865 19.347 26.1739 19.433 26.4193 19.594L26.8235 19.8596L26.9349 19.9426C27.1807 20.1522 27.3245 20.4607 27.3245 20.7883V21.8342C27.3245 22.1579 27.0057 22.3758 26.7112 22.2747L26.6526 22.2502L26.3626 22.1047C26.1325 21.9897 26.1365 21.66 26.3694 21.551L26.3909 21.5344C26.4018 21.5205 26.4059 21.5018 26.4017 21.4846L26.389 21.4612L25.8323 20.8088C25.6662 20.6142 25.4108 20.5263 25.1644 20.5715L25.0589 20.5989L24.8919 20.6575C24.8327 20.6781 24.7782 20.7097 24.7318 20.7512L24.6888 20.7952L24.0462 21.5413C23.8295 21.7929 23.4167 21.6398 23.4163 21.3079C23.4163 21.2275 23.4438 21.1493 23.4935 21.0862L24.4095 19.9211L24.5237 19.7922C24.8047 19.5089 25.1893 19.3469 25.5931 19.3469Z" fill="#B1ECFF" stroke="black" stroke-width="0.25"/>
<path d="M26.0198 21.7214C26.0827 21.7096 26.1481 21.7187 26.2064 21.7478L26.7083 21.9988L26.8431 22.0779C27.1421 22.2841 27.3244 22.6261 27.3245 22.9958C27.3245 23.4918 26.9983 23.9239 26.5306 24.0642L26.4359 24.0886L25.5198 24.2781C25.2368 24.3366 24.9442 24.3237 24.6683 24.2419L24.5511 24.2029L23.8255 23.9304C23.5794 23.8379 23.4163 23.6025 23.4163 23.3396C23.4165 22.9117 23.8332 22.6082 24.2405 22.739L24.5179 22.8279L24.6077 22.8494C24.638 22.8541 24.6688 22.8562 24.6995 22.8562H25.6829C25.808 22.8562 25.9215 22.7832 25.9739 22.6697L25.9886 22.6375L26.0091 22.575C26.0167 22.5319 26.0127 22.4874 25.9984 22.446L25.9691 22.3875L25.8284 22.1755C25.7262 22.0218 25.7885 21.8128 25.9583 21.74L26.0198 21.7214Z" fill="#F8EAB9" stroke="black" stroke-width="0.25"/>
<path d="M26.5892 23.8059C26.9786 23.771 27.3245 24.0785 27.3245 24.4807C27.3244 24.7393 27.178 24.9718 26.9525 25.0852L26.8509 25.1262L24.722 25.7952C24.6964 25.8032 24.6715 25.8133 24.6478 25.8254L24.5794 25.8684C24.1003 26.2277 23.4166 25.8861 23.4163 25.2874V25.0198C23.4163 24.2896 24.1457 23.7839 24.8294 24.0403L24.9368 24.0725C25.046 24.0966 25.1595 24.0973 25.2698 24.0745L26.511 23.8176L26.5892 23.8059Z" fill="#FFB1EF" stroke="black" stroke-width="0.25"/>
<path d="M23.4163 18.3413C23.4163 17.5579 24.2876 17.0889 24.9417 17.52L25.0071 17.5581C25.1633 17.6392 25.3442 17.6621 25.5169 17.6206L26.0198 17.4995L26.1439 17.4771C26.7624 17.403 27.3244 17.8863 27.3245 18.5278V19.0259C27.3242 19.6143 26.7115 19.9821 26.2025 19.7417L26.1028 19.6851C26.015 19.6274 25.912 19.5972 25.8069 19.5972H25.2444C25.1209 19.5972 25.002 19.6394 24.9075 19.7153L24.8216 19.8022C24.3593 20.3887 23.4164 20.0619 23.4163 19.3149V18.3413Z" fill="#C8EDEA" stroke="black" stroke-width="0.25"/>
<path d="M24.722 14.6045C25.1251 14.3549 25.6697 14.5227 25.8528 14.9766L26.2142 15.8711L26.2542 15.9834C26.3256 16.211 26.341 16.4525 26.3001 16.6875L26.2757 16.8037L26.1624 17.2451C26.0929 17.5152 25.8984 17.7329 25.6439 17.835L25.5316 17.8711C25.325 17.9227 25.1074 17.8969 24.9202 17.7998L24.8421 17.7539L23.846 17.0977C23.5776 16.9207 23.4163 16.6203 23.4163 16.2988V15.1611C23.4163 14.7719 23.877 14.5668 24.1663 14.8271L24.2269 14.8643C24.2919 14.8899 24.3678 14.8798 24.4251 14.834L24.6439 14.6592L24.722 14.6045Z" fill="#F8EAB9" stroke="black" stroke-width="0.25"/>
<path d="M26.511 10.7922C26.9566 10.7986 27.3243 11.1619 27.3245 11.6184V16.9211C27.3245 17.1883 27.1644 17.4257 26.9251 17.5276L26.8177 17.5627C26.3361 17.6761 25.9066 17.2372 26.0296 16.7581L26.0901 16.5217L26.1048 16.4348C26.1103 16.3763 26.1061 16.3173 26.0931 16.26L26.0667 16.175L25.4232 14.5803C25.3246 14.336 25.3974 14.0561 25.6019 13.8899L25.6478 13.844C25.7308 13.7462 25.7539 13.61 25.7073 13.4905L25.678 13.4329L25.472 13.1008C25.297 12.8189 25.2668 12.4705 25.39 12.1624L25.7298 11.3118L25.7796 11.2083C25.9119 10.9767 26.15 10.8206 26.4202 10.7952L26.511 10.7922Z" fill="#B1ECFF" stroke="black" stroke-width="0.25"/>
<path d="M25.3357 7.09998C25.6586 6.83728 26.0981 6.75561 26.4998 6.89294L26.5906 6.92712C27.0336 7.11896 27.3249 7.5574 27.325 8.04626V8.74451C27.3249 9.11187 27.1293 9.44695 26.8191 9.62927L26.6794 9.69763C26.5782 9.73807 26.4714 9.76212 26.363 9.76892L26.2537 9.7699L25.7908 9.74939C25.6798 9.74455 25.5701 9.72548 25.4646 9.69177L25.3601 9.65271C25.0401 9.51797 24.793 9.25734 24.6736 8.93591L24.6296 8.79529L24.6189 8.74744C24.5133 8.31168 24.6309 7.85187 24.9333 7.52087L25.2048 7.22302L25.3357 7.09998Z" fill="white" stroke="black" stroke-width="0.25"/>
<path d="M25.3357 7.09998C25.6586 6.83728 26.0981 6.75561 26.4998 6.89294L26.5906 6.92712C27.0336 7.11896 27.3249 7.5574 27.325 8.04626V8.74451C27.3249 9.11187 27.1293 9.44695 26.8191 9.62927L26.6794 9.69763C26.5782 9.73807 26.4714 9.76212 26.363 9.76892L26.2537 9.7699L25.7908 9.74939C25.6798 9.74455 25.5701 9.72548 25.4646 9.69177L25.3601 9.65271C25.0401 9.51797 24.793 9.25734 24.6736 8.93591L24.6296 8.79529L24.6189 8.74744C24.5133 8.31168 24.6309 7.85187 24.9333 7.52087L25.2048 7.22302L25.3357 7.09998Z" fill="#C8EDEA" stroke="black" stroke-width="0.25"/>
<path d="M6.2124 4.67505C6.60433 4.67519 6.97276 4.86196 7.20459 5.17798L7.38428 5.4231L7.43701 5.5022C7.65935 5.88043 7.58415 6.36559 7.2583 6.65942L7.18506 6.71899L6.64111 7.11841C6.51739 7.20895 6.34888 7.19078 6.24658 7.08521L6.20752 7.03442C6.19402 7.01298 6.16784 7.00589 6.146 7.01392L6.12549 7.02759L5.81299 7.37036C5.41078 7.81149 4.67627 7.5269 4.67627 6.92993V6.10864C4.67627 5.31708 5.3183 4.67505 6.10986 4.67505H6.2124Z" fill="#B1ECFF" stroke="black" stroke-width="0.25"/>
<path d="M8.08099 4.67505C8.51601 4.67523 8.86908 5.02808 8.86908 5.46313V8.84595C8.86908 8.94595 8.84552 9.04414 8.8017 9.13306L8.75092 9.21802C8.42227 9.68751 7.71152 9.5267 7.58783 9.0022L7.57123 8.89282L7.46283 7.39575C7.45624 7.30487 7.46017 7.21327 7.47455 7.12329L7.58881 6.41138L7.59564 6.2981C7.59258 6.2231 7.57442 6.14942 7.54291 6.0813L7.48529 5.98364L7.44525 5.92896C7.06358 5.4085 7.43559 4.67505 8.08099 4.67505Z" fill="#FFB1EF" stroke="black" stroke-width="0.25"/>
<path d="M7.9545 9.93311C8.27596 9.60501 8.86856 9.82313 8.86856 10.314V11.8667C8.86855 11.9986 8.84341 12.1289 8.79434 12.2505L8.73672 12.3696L7.87344 13.9048C7.73125 14.1575 7.52462 14.3671 7.27579 14.5132L7.16641 14.5718C6.28808 15.0013 5.24807 14.5677 4.91641 13.6772L4.85977 13.4927L4.83829 13.4028C4.72925 12.9585 4.80261 12.4888 5.04239 12.0991L6.1293 10.3325L6.17715 10.2632C6.42768 9.92957 6.87903 9.80755 7.267 9.97998L7.54434 10.104L7.59219 10.1196C7.70494 10.1475 7.82538 10.1042 7.89395 10.0063L7.9545 9.93311Z" fill="#F8EAB9" stroke="black" stroke-width="0.25"/>
<path d="M7.59024 13.8807C8.00325 13.3815 8.8685 13.656 8.86856 14.3524V15.6718C8.86855 15.7129 8.86643 15.754 8.86172 15.7948L8.84024 15.9169L8.33731 18.0692C8.19466 18.6783 7.39293 18.7676 7.10001 18.2616L7.04825 18.1522C6.9527 17.8975 6.65389 17.8048 6.43497 17.9344L6.34708 18.0038L5.9584 18.4012C5.48957 18.8797 4.67628 18.5478 4.67618 17.8778V15.0106C4.67618 14.5368 5.35313 14.4548 5.46622 14.9149L5.47891 14.9481C5.51582 15.0201 5.60614 15.0523 5.68204 15.0135L7.31876 14.1776L7.37735 14.1425C7.43324 14.1028 7.47966 14.051 7.51407 13.9911L7.59024 13.8807Z" fill="#C8EDEA" stroke="black" stroke-width="0.25"/>
<path d="M6.23456 17.7574C6.5871 17.4864 7.11722 17.6261 7.27948 18.0582L7.51874 18.6969L7.55682 18.7633C7.66524 18.8934 7.89619 18.8552 7.93964 18.6696L7.97186 18.5748C8.16464 18.1386 8.86802 18.2522 8.86835 18.776V21.5934C8.86835 22.0273 8.52233 22.3756 8.09882 22.3883L8.01288 22.3864L6.7453 22.2887C6.44092 22.2653 6.22924 22.5855 6.3703 22.8561L6.59882 23.2916L6.62714 23.359C6.73403 23.6741 6.45647 23.9958 6.12909 23.9362L6.05878 23.9176C5.98876 23.8933 5.91381 23.9115 5.86249 23.9596L5.81952 24.0172L5.76874 24.1227C5.50398 24.6746 4.67499 24.4859 4.67499 23.8737V19.9186C4.67504 19.5278 4.8303 19.153 5.10663 18.8766L6.1662 17.817L6.23456 17.7574Z" fill="#B1ECFF" stroke="black" stroke-width="0.25"/>
<path d="M6.76505 22.0391L7.9584 22.1309L8.05313 22.1426C8.51982 22.2239 8.86834 22.6305 8.86856 23.1133V23.6357C8.86867 23.7537 8.9644 23.8496 9.08243 23.8496C9.54244 23.8496 9.70723 24.4318 9.36368 24.6836L9.28751 24.7295L8.12735 25.3018C7.82869 25.449 7.77953 25.8544 8.03458 26.0684L8.12149 26.1533C8.5051 26.5959 8.20109 27.3252 7.57852 27.3252H5.8959C5.22223 27.325 4.67618 26.7782 4.67618 26.1045C4.67623 25.9221 4.71748 25.7416 4.7963 25.5771L5.59512 23.9092L5.63809 23.8379C5.75143 23.6833 5.95499 23.6166 6.142 23.6816L6.20352 23.6924C6.32266 23.6948 6.41786 23.5843 6.39786 23.4668L6.37833 23.4082L6.14981 22.9727C5.91743 22.5281 6.26499 22.0009 6.76505 22.0391Z" fill="#F8EAB9" stroke="black" stroke-width="0.25"/>
<path d="M6.88907 6.63525C7.27232 6.43514 7.74329 6.70998 7.75723 7.14209L7.75235 7.23779C7.74997 7.25786 7.74924 7.27816 7.7504 7.29834L7.87735 9.48584V9.57568C7.84651 9.98452 7.44074 10.2651 7.04727 10.1499L6.96329 10.1187C6.80244 10.0472 6.61667 10.0897 6.50235 10.2163L6.4584 10.2749L6.34415 10.4614C5.86807 11.2346 4.67618 10.8969 4.67618 9.98877V8.73291L4.68204 8.61572C4.70736 8.34509 4.81975 8.08864 5.0043 7.88623L5.94083 6.85889L5.99551 6.81104C6.13255 6.71878 6.32674 6.75398 6.41934 6.90186L6.43399 6.91748C6.45141 6.92931 6.47541 6.92981 6.49356 6.9165L6.80801 6.68604L6.88907 6.63525Z" fill="#C8EDEA" stroke="black" stroke-width="0.25"/>
<path d="M9.89716 24.1511C10.2984 24.0078 10.7492 24.2199 10.8874 24.6345L10.9265 24.7244C10.9741 24.8095 11.0457 24.8801 11.1325 24.9275L12.0837 25.446L12.1735 25.5007C12.5728 25.7756 12.7171 26.3016 12.5143 26.7419L12.4655 26.8347C12.2854 27.1385 11.9583 27.3248 11.6052 27.325H9.66473C9.37177 27.3249 9.0867 27.2362 8.84637 27.072L8.74579 26.9968C7.926 26.326 8.07757 25.0317 9.02997 24.5681L9.81805 24.1843L9.89716 24.1511Z" fill="#FFB1EF" stroke="black" stroke-width="0.25"/>
<path d="M13.6627 23.8494C14.1593 23.8494 14.4126 24.4221 14.1197 24.7878L14.0543 24.8582C13.9793 24.9266 13.9401 25.0255 13.9478 25.1267L14.0064 25.8914L14.0172 25.9597C14.0323 26.0274 14.0618 26.0916 14.1041 26.1472L14.1646 26.24C14.4269 26.7144 14.088 27.325 13.5191 27.325H12.9879C12.5007 27.325 12.1985 26.7948 12.4468 26.3757L12.48 26.3044C12.5299 26.1581 12.4846 25.9945 12.3668 25.8943L12.3023 25.8503L10.9683 25.1228C10.862 25.0648 10.7742 24.9793 10.7125 24.8767L10.6597 24.7693C10.4907 24.3255 10.8186 23.8494 11.2935 23.8494H13.6627Z" fill="#B1ECFF" stroke="black" stroke-width="0.25"/>
<path d="M17.0507 21.7637C17.2688 21.6719 17.5159 21.6696 17.7372 21.7607L18.414 22.0391L18.541 22.1016C18.826 22.2643 19.0262 22.5474 19.081 22.876L19.4286 24.9629L19.4462 25.0146C19.5045 25.1231 19.6725 25.132 19.7343 25.0088L19.7753 24.9414C20.0004 24.6374 20.5165 24.7851 20.5165 25.1934V26.584C20.5165 26.9932 20.1846 27.3252 19.7753 27.3252H18.0624C17.4039 27.3252 16.8692 26.7946 16.8622 26.1377V26.1387L16.7529 25.1914C16.7441 25.1155 16.711 25.0454 16.6591 24.9912L16.6015 24.9424L16.1054 24.6123C15.7629 24.3836 15.9249 23.8496 16.3369 23.8496C16.4288 23.8496 16.5038 23.7746 16.5038 23.6826V22.5869C16.5039 22.2642 16.6777 21.9669 16.9589 21.8086L17.0507 21.7637Z" fill="#F8EAB9" stroke="black" stroke-width="0.25"/>
<path d="M17.4828 19.8914C17.9188 19.7103 18.4284 19.8554 18.7016 20.2507L19.2123 20.99L19.2553 21.0369C19.3645 21.1279 19.5395 21.0994 19.6078 20.9626L19.6547 20.8845C19.9163 20.5308 20.517 20.7027 20.517 21.1775V23.824C20.517 23.942 20.4888 24.0592 20.436 24.1648C20.1271 24.7818 19.2471 24.6909 19.0385 24.0789L19.0063 23.949L18.8344 22.9177C18.7921 22.664 18.6374 22.4449 18.4174 22.3191L18.3188 22.2703L17.4653 21.9187C17.4123 21.897 17.3541 21.8951 17.3002 21.9109L17.2485 21.9324C16.9154 22.1198 16.5034 21.879 16.5034 21.4968V20.9119C16.5034 20.6 16.676 20.3136 16.9516 20.1677L17.3969 19.9314L17.4828 19.8914Z" fill="#B1ECFF" stroke="black" stroke-width="0.25"/>
<path d="M18.5424 15.6367C19.0122 15.2008 19.7588 15.2204 20.2045 15.7031L20.2758 15.7871C20.4314 15.9911 20.517 16.2415 20.517 16.5V19.416C20.517 19.6048 20.4726 19.7911 20.3881 19.96L20.2328 20.2705C19.9104 20.9154 19.0507 21.0146 18.5844 20.5029L18.4965 20.3926L18.3901 20.2393C18.2512 20.0382 17.9999 19.9553 17.7739 20.0254L17.6791 20.0654C17.1457 20.3478 16.5034 19.9609 16.5034 19.3574V17.6572C16.5036 17.3175 16.8964 17.1285 17.1625 17.3398L17.4672 17.582L17.5112 17.6113C17.7338 17.7406 18.0266 17.5828 18.0268 17.3125V16.5762C18.0269 16.3478 18.1086 16.1267 18.2582 15.9541L18.4526 15.7305L18.5424 15.6367Z" fill="#FFB1EF" stroke="black" stroke-width="0.25"/>
<path d="M19.7778 4.67505C20.1856 4.67505 20.5168 5.00556 20.517 5.41333C20.517 5.65413 20.3992 5.87755 20.2065 6.01489L20.1196 6.0686L19.6733 6.30103C19.1319 6.58348 19.0417 7.32173 19.4995 7.72583L19.5981 7.81274L19.683 7.89771C19.8395 8.07839 19.9171 8.31469 19.8989 8.55298L19.8813 8.67212C19.7392 9.33504 18.9543 9.59318 18.4487 9.18872L18.351 9.09888L18.2924 9.0354C18.1476 8.88126 17.9378 8.80893 17.7319 8.83716L17.644 8.85571C17.0715 9.01643 16.5036 8.58607 16.5034 7.99146V6.18872C16.5034 5.35277 17.1811 4.67512 18.017 4.67505H19.7778Z" fill="#C8EDEA" stroke="black" stroke-width="0.25"/>
<path d="M19.3495 6.19763C19.905 5.99666 20.5162 6.40528 20.5165 7.0199V11.6244C20.5165 11.8429 20.4547 12.0568 20.3388 12.2406L20.2861 12.3177C19.8827 12.8555 19.1159 12.9296 18.6171 12.5062L18.5214 12.4154L18.1562 12.0267C18.0531 11.9169 17.9752 11.7866 17.9277 11.6449L17.8906 11.4994C17.8038 11.0214 18.0592 10.5472 18.5058 10.3558L18.7841 10.2357L18.9111 10.1722C19.1953 10.0073 19.3999 9.72922 19.4697 9.40369L19.6093 8.74841L19.6269 8.6322C19.6446 8.40096 19.5686 8.17186 19.4169 7.99646L19.3349 7.91345L19.0654 7.67517C18.6058 7.26964 18.6958 6.52901 19.2392 6.24548L19.3495 6.19763Z" fill="#F8EAB9" stroke="black" stroke-width="0.25"/>
<path d="M17.5981 8.61975C17.9544 8.57111 18.3163 8.6968 18.5668 8.9635L18.7924 9.20276L18.8647 9.29065C19.1729 9.71382 19.0471 10.3173 18.5952 10.5817L18.4936 10.6324C18.2186 10.7503 18.0612 11.0432 18.1147 11.3375L18.184 11.7164L18.3627 12.5221L18.3823 12.6305C18.4136 12.8487 18.395 13.071 18.3276 13.2809L18.2905 13.3844L18.1371 13.7604C18.007 14.0795 17.6966 14.2886 17.352 14.2887C16.8835 14.2887 16.5034 13.9085 16.5034 13.4401V9.8385L16.5073 9.73694C16.5489 9.23477 16.8983 8.80507 17.3901 8.66663L17.4457 8.651L17.5981 8.61975Z" fill="#FFB1EF" stroke="black" stroke-width="0.25"/>
<path d="M18.1879 12.8855C18.0913 12.4508 18.629 12.1658 18.934 12.49L19.2368 12.8123L19.2797 12.8484C19.3869 12.9206 19.5363 12.8992 19.6176 12.7908L19.6752 12.7263C19.9794 12.4337 20.517 12.6406 20.517 13.0906V14.9861C20.517 15.4609 19.9699 15.7048 19.6186 15.4265L19.5512 15.364C19.4428 15.2466 19.2666 15.2345 19.144 15.3259L19.0952 15.3708L18.4477 16.1179C18.3375 16.245 18.2769 16.4077 18.2768 16.5759V16.7078C18.2765 17.403 17.5234 17.81 16.9506 17.4783L16.8383 17.4021C16.6266 17.234 16.5035 16.9781 16.5034 16.7078V14.8865L16.5073 14.7996C16.5507 14.3718 16.9128 14.0378 17.352 14.0378C17.595 14.0377 17.8139 13.8908 17.9057 13.6658L18.1782 12.9968L18.1909 12.9421L18.1879 12.8855Z" fill="#C8EDEA" stroke="black" stroke-width="0.25"/>
<path d="M15.1595 23.8494C15.3535 23.8494 15.5436 23.9084 15.7034 24.0183L16.1995 24.3591L16.3753 24.4949C16.7671 24.8294 17.0268 25.2972 17.0999 25.8123L17.1116 25.8972L17.1243 26.0876C17.1165 26.7732 16.5581 27.325 15.8724 27.325H15.4954C15.0486 27.325 14.6237 27.1422 14.3177 26.824L14.1946 26.6794L14.0618 26.5056C13.8972 26.2888 13.7904 26.0344 13.7503 25.7664L13.7376 25.6511C13.6994 25.1546 13.8914 24.6676 14.2591 24.3318L14.513 24.1003L14.5823 24.0427C14.748 23.9178 14.9504 23.8494 15.1595 23.8494Z" fill="#C8EDEA" stroke="black" stroke-width="0.25"/>
</svg>
